<svg xmlns:svg="http://www.w3.org/2000/svg" xmlns="http://www.w3.org/2000/svg" xml:space="preserve" viewBox="0 0 81.9 81.9" y="0" x="0" version="1.1" width="48" height="48" fill="#000"><style>.s0{fill:#000;}.s1{fill:#000;stroke-width:1.4;stroke:#fff;}</style><defs><linearGradient><stop offset="0" style="stop-color:#000000;stop-opacity:1"/></linearGradient></defs><g transform="matrix(1.19523,0,0,1.1901766,-8.0587599,-11.444767)"><path d="m21.5 17.7c-2.8 0-5.1 1.8-5.9 4.5 0 0 0 0 0 0 0 0 0 0 0 0L10.9 41.4c1.5-0.7 2.6-0.8 4.1-0.8l4.2-17.3c0.3-1 1.3-1.7 2.3-1.7 1.3 0 2.4 1.1 2.4 2.5 0 1.1 0.8 1.9 1.9 1.9 1 0 1.9-0.9 1.9-1.9 0-3.5-2.8-6.3-6.2-6.3z" class="s1"/><path d="m442.8 256-373.6 215.7 0-431.5z" transform="matrix(0.12549307,0,0,0.12708012,8.8857635,11.498574)" fill="#000"/><path d="m67.5 41.8-18.8 0c-2.6 0-4.8 1.8-5.4 4.2-0.7-0.3-1.5-0.4-2.2-0.4-0.7 0-1.6 0.2-2.2 0.4-0.7-2.4-2.8-4.2-5.4-4.2l-18.8 0c-3.1 0-5.6 2.5-5.6 5.7l0 3.8c0 7.4 5.9 13.3 13.2 13.3l3.8 0c7.3 0 13.2-6 13.2-13.3 0-1.1 1-1.9 2-1.9 1 0 2 0.9 2 1.9 0 7.4 5.9 13.3 13.2 13.3l3.8 0c7.3 0 13.2-6 13.2-13.3l0-3.8c0-3.2-2.5-5.7-5.6-5.7zM66.5 22.3c0 0 0 0 0 0 0 0 0 0 0 0-0.8-2.7-3.2-4.5-5.9-4.5-3.4 0-6.2 2.8-6.2 6.3 0 1.1 0.8 1.9 1.9 1.9 1 0 1.9-0.9 1.9-1.9 0-1.4 1.1-2.5 2.4-2.5 1.1 0 2 0.7 2.3 1.7l4.2 17.3c1.4 0 2.6 0.1 4.1 0.7l-4.6-19z" class="s1"/></g></svg>